<svg width="225" height="37" viewBox="0 0 225 37" fill="none" xmlns="http://www.w3.org/2000/svg">
<path d="M0 35.6L13.55 0H23.75L37.15 35.6H26.75L16.8 5.35H20.4L10.2 35.6H0ZM8.8 29.6V21.8H28.7V29.6H8.8Z" fill="#9E9E9E"/>
<path d="M40.5441 35.6V11H50.3441V35.6H40.5441ZM50.3441 22.3L45.7941 18.25C47.0608 15.5833 48.5275 13.6333 50.1941 12.4C51.8941 11.1333 54.0108 10.5 56.5441 10.5C57.6775 10.5 58.6441 10.6333 59.4441 10.9C60.2775 11.1667 60.9441 11.55 61.4441 12.05L55.9441 19.85C55.7108 19.5833 55.3608 19.3667 54.8941 19.2C54.4608 19 53.9441 18.9 53.3441 18.9C52.3441 18.9 51.5941 19.2 51.0941 19.8C50.5941 20.3667 50.3441 21.2 50.3441 22.3Z" fill="#9E9E9E"/>
<path d="M75.3262 36.2C72.6595 36.2 70.2595 35.65 68.1262 34.55C65.9928 33.45 64.3095 31.9333 63.0762 30C61.8428 28.0333 61.2262 25.8167 61.2262 23.35C61.2262 20.85 61.8428 18.6333 63.0762 16.7C64.3428 14.7333 66.0428 13.2 68.1762 12.1C70.3428 10.9667 72.7762 10.4 75.4762 10.4C77.4095 10.4 79.1428 10.7 80.6762 11.3C82.2428 11.9 83.6928 12.8167 85.0262 14.05L78.8762 20.2C78.4428 19.8 77.9595 19.5 77.4262 19.3C76.8928 19.1 76.2428 19 75.4762 19C74.6762 19 73.9428 19.1833 73.2762 19.55C72.6428 19.8833 72.1262 20.3667 71.7262 21C71.3262 21.6333 71.1262 22.3833 71.1262 23.25C71.1262 24.1167 71.3262 24.8833 71.7262 25.55C72.1262 26.1833 72.6595 26.6833 73.3262 27.05C73.9928 27.4167 74.7095 27.6 75.4762 27.6C76.3428 27.6 77.0595 27.4667 77.6262 27.2C78.1928 26.9333 78.6928 26.5667 79.1262 26.1L85.2762 32.25C83.8428 33.5833 82.3428 34.5833 80.7762 35.25C79.2095 35.8833 77.3928 36.2 75.3262 36.2Z" fill="#9E9E9E"/>
<path d="M98.4367 36.1C96.1367 36.1 94.1034 35.55 92.3367 34.45C90.57 33.35 89.1867 31.85 88.1867 29.95C87.1867 28.0167 86.6867 25.8 86.6867 23.3C86.6867 20.8 87.1867 18.5833 88.1867 16.65C89.1867 14.7167 90.57 13.2167 92.3367 12.15C94.1034 11.05 96.1367 10.5 98.4367 10.5C99.87 10.5 101.187 10.75 102.387 11.25C103.62 11.7167 104.637 12.3833 105.437 13.25C106.27 14.1167 106.803 15.1167 107.037 16.25V30.35C106.803 31.4833 106.27 32.4833 105.437 33.35C104.637 34.2167 103.62 34.9 102.387 35.4C101.187 35.8667 99.87 36.1 98.4367 36.1ZM100.637 27.5C101.87 27.5 102.853 27.1167 103.587 26.35C104.353 25.55 104.737 24.5333 104.737 23.3C104.737 22.4667 104.57 21.75 104.237 21.15C103.903 20.5167 103.42 20.0167 102.787 19.65C102.187 19.2833 101.487 19.1 100.687 19.1C99.8867 19.1 99.17 19.2833 98.5367 19.65C97.9367 20.0167 97.4534 20.5167 97.0867 21.15C96.72 21.7833 96.5367 22.5 96.5367 23.3C96.5367 24.1 96.7034 24.8167 97.0367 25.45C97.4034 26.0833 97.9034 26.5833 98.5367 26.95C99.17 27.3167 99.8701 27.5 100.637 27.5ZM104.437 35.6V29L105.787 23L104.437 17.05V11H113.987V35.6H104.437Z" fill="#9E9E9E"/>
<path d="M135.104 35.6V21.8C135.104 20.8333 134.821 20.1 134.254 19.6C133.721 19.0667 133.038 18.8 132.204 18.8C131.638 18.8 131.121 18.9167 130.654 19.15C130.221 19.3833 129.871 19.7333 129.604 20.2C129.371 20.6333 129.254 21.1667 129.254 21.8L125.454 20.1C125.454 18.1 125.888 16.3833 126.754 14.95C127.654 13.5167 128.871 12.4167 130.404 11.65C131.971 10.8833 133.738 10.5 135.704 10.5C137.471 10.5 139.038 10.9 140.404 11.7C141.804 12.4667 142.904 13.5333 143.704 14.9C144.504 16.2333 144.904 17.7833 144.904 19.55V35.6H135.104ZM119.454 35.6V11H129.254V35.6H119.454Z" fill="#9E9E9E"/>
<path d="M162.643 36.2C159.776 36.2 157.26 35.6667 155.093 34.6C152.926 33.5 151.226 31.9833 149.993 30.05C148.793 28.0833 148.193 25.8333 148.193 23.3C148.193 20.8 148.776 18.5833 149.943 16.65C151.143 14.7167 152.776 13.2 154.843 12.1C156.91 10.9667 159.243 10.4 161.843 10.4C164.41 10.4 166.676 10.9333 168.643 12C170.61 13.0333 172.143 14.4833 173.243 16.35C174.376 18.2167 174.943 20.35 174.943 22.75C174.943 23.25 174.91 23.7833 174.843 24.35C174.81 24.8833 174.71 25.5167 174.543 26.25L152.343 26.4V20.4L170.893 20.25L166.343 22.9C166.343 21.5667 166.176 20.4833 165.843 19.65C165.543 18.7833 165.076 18.1333 164.443 17.7C163.81 17.2667 163.01 17.05 162.043 17.05C161.043 17.05 160.176 17.3 159.443 17.8C158.71 18.3 158.143 19.0167 157.743 19.95C157.376 20.8833 157.193 22.0167 157.193 23.35C157.193 24.7167 157.393 25.8667 157.793 26.8C158.226 27.7 158.843 28.3833 159.643 28.85C160.443 29.3167 161.443 29.55 162.643 29.55C163.81 29.55 164.826 29.3667 165.693 29C166.593 28.6 167.41 27.9833 168.143 27.15L173.043 32C171.81 33.4 170.326 34.45 168.593 35.15C166.86 35.85 164.876 36.2 162.643 36.2Z" fill="#9E9E9E"/>
<rect x="193.7" y="20.6" width="31" height="6" fill="#E0E0E0"/>
</svg>
