<svg width="175" height="37" viewBox="0 0 175 37" fill="none" xmlns="http://www.w3.org/2000/svg">
<path d="M0 36L13.55 0.399994H23.75L37.15 36H26.75L16.8 5.74999H20.4L10.2 36H0ZM8.8 30V22.2H28.7V30H8.8Z" fill="#3F51B5"/>
<path d="M40.5441 36V11.4H50.3441V36H40.5441ZM50.3441 22.7L45.7941 18.65C47.0608 15.9833 48.5275 14.0333 50.1941 12.8C51.8941 11.5333 54.0108 10.9 56.5441 10.9C57.6775 10.9 58.6441 11.0333 59.4441 11.3C60.2775 11.5667 60.9441 11.95 61.4441 12.45L55.9441 20.25C55.7108 19.9833 55.3608 19.7667 54.8941 19.6C54.4608 19.4 53.9441 19.3 53.3441 19.3C52.3441 19.3 51.5941 19.6 51.0941 20.2C50.5941 20.7667 50.3441 21.6 50.3441 22.7Z" fill="#3F51B5"/>
<path d="M75.3262 36.6C72.6595 36.6 70.2595 36.05 68.1262 34.95C65.9928 33.85 64.3095 32.3333 63.0762 30.4C61.8428 28.4333 61.2262 26.2167 61.2262 23.75C61.2262 21.25 61.8428 19.0333 63.0762 17.1C64.3428 15.1333 66.0428 13.6 68.1762 12.5C70.3428 11.3667 72.7762 10.8 75.4762 10.8C77.4095 10.8 79.1428 11.1 80.6762 11.7C82.2428 12.3 83.6928 13.2167 85.0262 14.45L78.8762 20.6C78.4428 20.2 77.9595 19.9 77.4262 19.7C76.8928 19.5 76.2428 19.4 75.4762 19.4C74.6762 19.4 73.9428 19.5833 73.2762 19.95C72.6428 20.2833 72.1262 20.7667 71.7262 21.4C71.3262 22.0333 71.1262 22.7833 71.1262 23.65C71.1262 24.5167 71.3262 25.2833 71.7262 25.95C72.1262 26.5833 72.6595 27.0833 73.3262 27.45C73.9928 27.8167 74.7095 28 75.4762 28C76.3428 28 77.0595 27.8667 77.6262 27.6C78.1928 27.3333 78.6928 26.9667 79.1262 26.5L85.2762 32.65C83.8428 33.9833 82.3428 34.9833 80.7762 35.65C79.2095 36.2833 77.3928 36.6 75.3262 36.6Z" fill="#3F51B5"/>
<path d="M98.4367 36.5C96.1367 36.5 94.1034 35.95 92.3367 34.85C90.57 33.75 89.1867 32.25 88.1867 30.35C87.1867 28.4167 86.6867 26.2 86.6867 23.7C86.6867 21.2 87.1867 18.9833 88.1867 17.05C89.1867 15.1167 90.57 13.6167 92.3367 12.55C94.1034 11.45 96.1367 10.9 98.4367 10.9C99.87 10.9 101.187 11.15 102.387 11.65C103.62 12.1167 104.637 12.7833 105.437 13.65C106.27 14.5167 106.803 15.5167 107.037 16.65V30.75C106.803 31.8833 106.27 32.8833 105.437 33.75C104.637 34.6167 103.62 35.3 102.387 35.8C101.187 36.2667 99.87 36.5 98.4367 36.5ZM100.637 27.9C101.87 27.9 102.853 27.5167 103.587 26.75C104.353 25.95 104.737 24.9333 104.737 23.7C104.737 22.8667 104.57 22.15 104.237 21.55C103.903 20.9167 103.42 20.4167 102.787 20.05C102.187 19.6833 101.487 19.5 100.687 19.5C99.8867 19.5 99.17 19.6833 98.5367 20.05C97.9367 20.4167 97.4534 20.9167 97.0867 21.55C96.72 22.1833 96.5367 22.9 96.5367 23.7C96.5367 24.5 96.7034 25.2167 97.0367 25.85C97.4034 26.4833 97.9034 26.9833 98.5367 27.35C99.17 27.7167 99.8701 27.9 100.637 27.9ZM104.437 36V29.4L105.787 23.4L104.437 17.45V11.4H113.987V36H104.437Z" fill="#3F51B5"/>
<path d="M135.104 36V22.2C135.104 21.2333 134.821 20.5 134.254 20C133.721 19.4667 133.038 19.2 132.204 19.2C131.638 19.2 131.121 19.3167 130.654 19.55C130.221 19.7833 129.871 20.1333 129.604 20.6C129.371 21.0333 129.254 21.5667 129.254 22.2L125.454 20.5C125.454 18.5 125.888 16.7833 126.754 15.35C127.654 13.9167 128.871 12.8167 130.404 12.05C131.971 11.2833 133.738 10.9 135.704 10.9C137.471 10.9 139.038 11.3 140.404 12.1C141.804 12.8667 142.904 13.9333 143.704 15.3C144.504 16.6333 144.904 18.1833 144.904 19.95V36H135.104ZM119.454 36V11.4H129.254V36H119.454Z" fill="#3F51B5"/>
<path d="M162.643 36.6C159.776 36.6 157.26 36.0667 155.093 35C152.926 33.9 151.226 32.3833 149.993 30.45C148.793 28.4833 148.193 26.2333 148.193 23.7C148.193 21.2 148.776 18.9833 149.943 17.05C151.143 15.1167 152.776 13.6 154.843 12.5C156.91 11.3667 159.243 10.8 161.843 10.8C164.41 10.8 166.676 11.3333 168.643 12.4C170.61 13.4333 172.143 14.8833 173.243 16.75C174.376 18.6167 174.943 20.75 174.943 23.15C174.943 23.65 174.91 24.1833 174.843 24.75C174.81 25.2833 174.71 25.9167 174.543 26.65L152.343 26.8V20.8L170.893 20.65L166.343 23.3C166.343 21.9667 166.176 20.8833 165.843 20.05C165.543 19.1833 165.076 18.5333 164.443 18.1C163.81 17.6667 163.01 17.45 162.043 17.45C161.043 17.45 160.176 17.7 159.443 18.2C158.71 18.7 158.143 19.4167 157.743 20.35C157.376 21.2833 157.193 22.4167 157.193 23.75C157.193 25.1167 157.393 26.2667 157.793 27.2C158.226 28.1 158.843 28.7833 159.643 29.25C160.443 29.7167 161.443 29.95 162.643 29.95C163.81 29.95 164.826 29.7667 165.693 29.4C166.593 29 167.41 28.3833 168.143 27.55L173.043 32.4C171.81 33.8 170.326 34.85 168.593 35.55C166.86 36.25 164.876 36.6 162.643 36.6Z" fill="#3F51B5"/>
</svg>
